<?xml version="1.0" standalone="no"?>
<!DOCTYPE svg PUBLIC "-//W3C//DTD SVG 20010904//EN"
 "http://www.w3.org/TR/2001/REC-SVG-20010904/DTD/svg10.dtd">
<svg version="1.0" xmlns="http://www.w3.org/2000/svg"
 width="1000.000000pt" height="1000.000000pt" viewBox="0 0 1000.000000 1000.000000"
 preserveAspectRatio="xMidYMid meet">

<g transform="translate(0.000000,1000.000000) scale(0.100000,-0.100000)"
fill="#000000" stroke="none">
<path d="M3130 9364 c-155 -30 -281 -83 -381 -160 -343 -263 -572 -915 -573
-1629 0 -135 5 -216 17 -280 26 -139 14 -161 -127 -232 -317 -160 -572 -387
-762 -678 -139 -214 -233 -463 -280 -740 -24 -137 -24 -443 0 -580 44 -263
133 -503 257 -701 63 -100 62 -105 -93 -265 -73 -76 -173 -179 -223 -231 -104
-108 -159 -143 -310 -198 -127 -46 -155 -64 -174 -113 -27 -73 10 -123 117
-158 37 -12 69 -23 71 -25 12 -10 -34 -80 -115 -177 -86 -102 -93 -114 -100
-165 -6 -47 -4 -57 15 -75 18 -18 34 -22 98 -24 l77 -2 17 -48 c9 -26 40 -120
68 -208 111 -349 297 -652 561 -915 434 -436 1022 -747 1755 -929 493 -123
863 -166 1620 -191 644 -21 823 -13 1310 56 655 92 1050 177 1400 301 233 82
287 105 505 214 333 168 596 349 811 561 442 434 706 1017 674 1488 -8 118
-30 259 -56 348 -10 37 -19 71 -19 77 0 9 26 24 154 86 105 50 137 173 79 301
-21 46 -35 63 -64 79 -72 36 -92 24 -119 -74 l-17 -62 -56 -11 c-141 -28 -376
92 -476 243 -44 66 -42 110 9 204 177 325 245 632 220 993 -21 296 -88 574
-191 795 -160 340 -450 619 -849 815 -74 37 -155 77 -180 89 -34 17 -48 30
-56 57 -6 20 -16 198 -22 405 -12 382 -28 571 -64 735 -61 288 -215 604 -371
768 -265 275 -605 337 -868 157 -101 -69 -173 -162 -233 -300 -75 -174 -101
-350 -83 -572 10 -122 9 -136 -9 -174 -10 -23 -35 -54 -56 -69 -55 -40 -143
-73 -173 -66 -15 4 -65 47 -112 96 -145 151 -204 180 -400 189 -158 7 -161 9
-199 125 -72 220 -217 373 -399 421 -168 43 -360 -10 -485 -135 -63 -63 -102
-134 -190 -342 -65 -155 -94 -194 -166 -224 -39 -16 -63 -10 -69 20 -2 11 -6
129 -8 261 -5 278 -18 347 -93 500 -111 228 -293 361 -504 370 -47 2 -96 1
-110 -1z m152 -492 c40 -45 88 -154 117 -267 45 -181 50 -392 16 -725 -19
-192 -19 -322 0 -360 21 -41 65 -61 152 -69 41 -4 77 -12 81 -17 21 -32 59
-44 132 -44 197 1 368 80 487 225 129 158 268 412 322 590 31 103 61 261 61
328 0 31 5 40 26 49 30 14 47 6 78 -35 18 -25 22 -62 41 -365 24 -383 26 -389
102 -418 57 -22 108 -12 147 30 17 18 73 88 125 155 116 150 151 172 221 136
37 -19 66 -68 86 -146 23 -88 14 -147 -46 -335 -41 -126 -50 -165 -45 -196 8
-44 44 -92 86 -113 35 -19 109 -19 152 -1 75 31 178 184 212 316 18 68 38 106
65 120 10 5 50 12 89 15 39 3 82 10 96 15 15 6 42 10 60 10 44 0 55 -20 55
-103 0 -85 38 -162 95 -194 55 -31 121 -30 167 1 20 13 51 29 70 35 71 23 100
78 154 288 28 111 38 175 49 328 8 104 20 261 26 347 9 119 9 189 0 288 -6 73
-8 136 -5 141 3 5 24 9 48 9 51 0 80 -20 160 -110 249 -280 337 -771 245
-1366 l-11 -71 -182 -6 c-458 -15 -960 -155 -1315 -366 -342 -203 -592 -496
-701 -823 -26 -77 -24 -76 -163 -85 l-97 -6 -38 39 c-20 22 -52 67 -70 101
-39 74 -138 226 -200 308 -165 216 -366 387 -602 513 -215 115 -415 175 -675
205 l-189 22 -28 85 c-26 79 -28 93 -22 196 8 144 -5 173 -108 241 -40 27 -83
64 -96 83 -23 33 -24 41 -19 150 11 227 95 467 226 643 56 76 162 182 218 217
66 42 102 40 145 -8z m4034 -2033 c628 -87 1130 -556 1266 -1182 30 -140 33
-457 4 -587 -68 -315 -194 -548 -416 -771 -176 -177 -358 -290 -584 -364 -183
-60 -250 -69 -471 -70 -174 0 -214 3 -304 23 -118 27 -219 61 -304 103 l-57
29 66 63 c232 216 306 497 229 867 -8 41 -17 81 -20 87 -3 9 -24 0 -65 -26
-147 -95 -285 -75 -365 54 -24 39 -30 59 -30 104 0 69 23 117 86 182 l47 49
-51 15 c-94 28 -186 12 -293 -50 -148 -86 -270 -301 -300 -528 -6 -43 -9 -48
-19 -33 -26 36 -84 236 -101 346 -20 136 -15 346 11 480 122 626 619 1106
1250 1205 101 16 320 18 421 4z m-4143 -19 c332 -56 610 -205 837 -447 185
-198 307 -435 372 -725 20 -88 23 -131 23 -293 0 -244 -25 -370 -108 -544 -29
-61 -31 -64 -34 -36 -9 74 -35 201 -50 236 l-15 39 -40 -34 c-59 -51 -101 -68
-168 -67 -69 0 -113 17 -164 61 -104 92 -101 221 6 334 50 52 48 58 -24 77
-58 16 -156 0 -234 -37 -133 -63 -262 -238 -309 -419 -39 -151 -39 -367 1
-521 36 -141 132 -291 239 -374 31 -24 54 -48 52 -54 -5 -16 -162 -94 -237
-117 -170 -52 -427 -62 -635 -24 -316 58 -619 217 -840 440 -122 124 -185 210
-262 363 -163 323 -202 690 -112 1042 149 577 628 1013 1214 1104 137 21 351
20 488 -4z m1996 -1452 c6 -18 22 -110 35 -205 65 -444 191 -761 417 -1043
246 -308 576 -512 989 -611 74 -17 152 -36 173 -41 21 -5 60 -29 89 -55 63
-56 151 -98 244 -118 99 -21 385 -30 530 -16 427 39 905 188 1066 331 l56 49
41 -59 c53 -75 93 -165 116 -255 21 -83 34 -254 24 -310 -4 -22 -12 -76 -19
-120 -33 -218 -172 -468 -416 -746 -202 -232 -515 -451 -864 -605 -229 -101
-223 -100 -590 -139 -319 -33 -997 -93 -1125 -98 -33 -2 -69 -8 -80 -14 -44
-23 -285 -113 -365 -136 -329 -95 -736 -86 -1070 24 -103 35 -138 51 -307 141
-64 35 -113 68 -116 78 -3 13 -11 16 -30 13 -34 -7 -405 78 -603 137 -359 108
-777 298 -1014 461 -441 302 -651 599 -724 1027 -20 117 -12 266 15 293 21 21
46 16 174 -33 502 -195 985 -209 1469 -41 214 74 355 171 467 320 13 18 82 69
153 113 202 126 282 187 401 305 170 169 291 351 381 575 78 194 120 391 149
693 7 76 -7 67 145 93 52 8 97 17 99 20 2 2 21 4 42 4 33 0 39 -3 48 -32z
m-1619 -528 c27 -21 40 -41 45 -67 7 -41 39 -108 55 -118 6 -4 21 -28 35 -55
l24 -48 -39 -36 c-48 -43 -80 -52 -130 -37 -60 18 -105 76 -119 152 -17 98 5
204 47 228 27 16 42 13 82 -19z m2536 5 c6 -8 14 -34 18 -56 7 -43 48 -133 66
-144 12 -7 50 -79 50 -94 0 -6 -21 -26 -46 -46 -57 -42 -91 -45 -152 -9 -61
36 -92 103 -92 201 0 79 10 116 43 151 18 20 29 23 62 19 21 -3 45 -13 51 -22z"/>
<path d="M4603 7720 c-125 -76 -46 -279 99 -255 166 28 145 275 -23 275 -26 0
-57 -8 -76 -20z"/>
<path d="M5110 7653 c-36 -14 -75 -50 -145 -138 -88 -109 -157 -171 -277 -249
-99 -63 -121 -90 -121 -147 0 -109 131 -160 274 -106 86 32 140 67 213 136 94
90 164 203 191 309 13 51 13 64 1 106 -25 81 -73 113 -136 89z"/>
<path d="M5280 7227 c-87 -46 -110 -140 -53 -215 71 -94 180 -97 249 -7 57 75
37 178 -41 222 -51 29 -101 29 -155 0z"/>
<path d="M4830 3770 c-259 -22 -431 -72 -502 -147 -49 -51 -61 -97 -66 -238
l-4 -130 61 -82 c80 -106 232 -261 351 -355 52 -42 105 -86 117 -100 l22 -24
-24 -51 c-103 -224 -287 -343 -524 -343 -264 1 -426 126 -496 383 -17 62 -17
68 -1 91 12 19 28 27 66 32 43 6 53 11 67 37 40 79 34 132 -20 166 -18 11 -90
36 -162 56 -125 35 -132 36 -195 24 -143 -26 -222 -74 -265 -160 -57 -111 -14
-203 116 -248 60 -22 78 -46 117 -165 18 -51 54 -122 100 -193 40 -61 72 -116
72 -122 0 -5 28 -31 63 -57 116 -88 268 -143 417 -150 52 -3 123 -12 157 -20
60 -16 63 -17 68 -53 29 -173 58 -227 142 -257 29 -10 121 -13 408 -13 377 0
473 7 555 41 85 36 139 113 160 228 6 36 19 86 28 113 l16 47 107 0 c58 0 144
7 190 15 143 25 317 94 338 134 16 28 104 81 137 81 38 1 103 31 130 61 33 37
151 260 157 299 4 19 1 63 -6 97 l-13 61 50 34 c131 86 129 195 -7 325 -101
98 -204 139 -367 150 -52 3 -101 10 -108 16 -9 7 -11 6 -8 -4 3 -9 -24 -32
-72 -64 -90 -59 -152 -139 -159 -209 -5 -37 -1 -46 25 -72 30 -30 139 -80 151
-69 3 3 -1 10 -8 15 -9 5 5 12 43 20 32 6 60 10 62 7 7 -7 -16 -189 -30 -238
-68 -228 -259 -349 -550 -349 -190 0 -336 61 -479 200 -116 113 -116 115 4
240 194 203 226 244 284 362 64 133 89 220 83 298 -5 68 -29 105 -94 149 -153
101 -434 153 -704 131z m452 -1588 c46 -22 101 -44 123 -47 83 -14 78 -8 71
-98 -7 -86 -30 -150 -64 -180 -41 -37 -138 -57 -197 -41 -11 3 -33 27 -48 54
-23 40 -27 60 -27 124 0 95 -17 138 -60 156 -28 12 -37 11 -59 -1 -41 -23 -54
-64 -61 -188 -5 -101 -8 -116 -28 -132 -46 -37 -267 -39 -338 -2 -24 12 -46
33 -57 56 -16 32 -17 44 -7 90 l11 54 68 27 c112 44 225 120 321 217 l89 90
90 -69 c50 -38 128 -87 173 -110z"/>
<path d="M1621 3154 c0 -11 3 -14 6 -6 3 7 2 16 -1 19 -3 4 -6 -2 -5 -13z"/>
</g>
</svg>
